<svg width="218" height="140" viewBox="0 0 218 140" fill="none" xmlns="http://www.w3.org/2000/svg">
<g clip-path="url(#clip0)">
<path d="M69.9295 69.7437H68.9324C65.0485 69.7437 61.1646 69.7437 57.2808 69.7437C56.4432 69.7437 56.2836 69.4849 56.2836 68.6936C56.3036 57.6818 56.3036 46.6684 56.2836 35.6532C56.1995 29.8939 57.5168 24.2001 60.1226 19.0609C62.9513 13.5004 67.2362 8.80874 72.5221 5.48438C75.9501 3.31797 79.7289 1.76204 83.6901 0.885896C87.0716 0.0881724 90.56 -0.158871 94.0205 0.154319C105.567 1.36366 114.631 6.77833 120.863 16.6173C124.938 22.9508 126.729 30.4816 125.939 37.9674C124.862 48.8465 119.782 57.5359 110.698 63.7368C108.616 65.1456 106.406 66.3553 104.097 67.3499C102.052 68.3072 99.8612 68.9161 97.6151 69.1515C95.7854 69.2859 93.9606 69.5098 92.1309 69.7139C91.4728 69.7885 91.1985 69.5994 91.2035 68.8728C91.2334 64.8914 91.2334 60.8918 91.2035 56.874C91.2035 56.2817 91.3431 56.0279 92.0212 55.9881C99.9036 55.5352 105.812 51.8276 109.715 45.0393C111.823 41.3645 112.697 37.1125 112.208 32.9061C111.485 25.8143 107.921 20.4643 101.958 16.7815C97.8057 14.1718 92.8331 13.1879 87.9977 14.0195C80.5192 15.2437 75.0349 19.3993 71.7393 26.2323C70.3334 29.1437 69.8647 32.284 69.8797 35.5338C69.9345 46.4826 69.8797 57.4313 69.8797 68.3801L69.9295 69.7437Z" fill="url(#paint0_radial)"/>
<path d="M94.0204 0.154327C98.4496 0.49429 102.782 1.62183 106.814 3.48375C110.851 5.4025 114.462 8.11015 117.433 11.4465C120.422 14.7676 122.787 18.5996 124.413 22.7586C126.001 26.9287 126.737 31.374 126.577 35.8324C126.394 40.3009 125.42 44.7019 123.7 48.8316C121.961 52.9633 119.385 56.6911 116.132 59.7804C112.909 62.8629 109.179 65.368 105.104 67.1857C103.089 68.1351 100.954 68.8048 98.7569 69.1764C96.5432 69.4004 94.3645 69.5596 92.1558 69.7388L98.717 68.8877C100.868 68.4531 102.948 67.7246 104.899 66.7229C106.881 65.7883 108.78 64.6896 110.578 63.4382C112.365 62.1737 114.044 60.7638 115.599 59.223C118.706 56.158 121.174 52.5097 122.863 48.4882C124.506 44.4617 125.426 40.1776 125.58 35.8324C125.784 31.4818 125.106 27.1348 123.586 23.0522C122.815 21.0172 121.853 19.0593 120.714 17.2046C119.566 15.3499 118.281 13.5833 116.87 11.9193C114.016 8.59538 110.528 5.87164 106.609 3.90677C104.65 2.91042 102.6 2.10221 100.487 1.49306C98.3651 0.897696 96.2044 0.450371 94.0204 0.154327Z" fill="#D6E50E"/>
<path d="M71.7942 26.2124C71.0988 27.8919 70.6456 29.6613 70.448 31.4678C70.3483 32.3686 70.2885 33.2694 70.2785 34.1702C70.2685 35.0709 70.3034 35.9767 70.3184 36.8924C70.3982 40.5403 70.4281 44.1933 70.4381 47.8412C70.448 51.4891 70.4381 55.142 70.3533 58.79C70.2685 62.4379 70.1738 66.0908 70.0093 69.7387V69.7985H69.9544L68.9573 69.7487L69.9544 69.6939L69.8996 69.7437C69.7351 66.0958 69.6054 62.4479 69.5456 58.7949C69.4858 55.142 69.4509 51.4941 69.4459 47.8462C69.4409 44.1982 69.4758 40.5453 69.5556 36.8974C69.5556 35.9867 69.5556 35.0709 69.6403 34.1453C69.7008 33.2239 69.814 32.3066 69.9794 31.3981C70.308 29.5852 70.9204 27.8352 71.7942 26.2124Z" fill="#D6E50E"/>
<path d="M159.263 69.674V68.5592C159.263 57.637 159.263 46.7131 159.263 35.7876C159.361 30.4392 158.252 25.1374 156.018 20.2752C153.756 15.4189 150.406 11.147 146.226 7.79002C142.046 4.43304 137.148 2.08095 131.912 0.915729C128.545 0.177002 125.091 -0.0860157 121.651 0.134385C120.401 0.235672 119.165 0.465826 117.962 0.821172C118.799 1.05508 119.642 1.27405 120.455 1.51791C127.697 3.64939 134.052 8.06511 138.569 14.1039C143.087 20.1427 145.523 27.4797 145.513 35.0162C145.513 46.1839 145.513 57.3517 145.513 68.5194V69.674H159.263Z" fill="url(#paint1_radial)"/>
<path d="M145.543 69.674C150.115 69.5596 154.692 69.5098 159.263 69.4252L159.014 69.674C158.949 61.995 158.825 54.3159 158.825 46.6318L158.78 35.1207C158.748 31.3243 158.143 27.5544 156.985 23.938C156.385 22.1389 155.63 20.3955 154.726 18.7274C152.054 13.667 148.163 9.34882 143.404 6.16119C136.986 1.8792 129.362 -0.233373 121.651 0.13439C125.507 -0.202274 129.391 0.0885038 133.153 0.995362C136.931 1.91138 140.525 3.46128 143.783 5.57892C147.074 7.6734 149.975 10.3222 152.358 13.4073C153.556 14.9457 154.625 16.5803 155.554 18.2944C156.489 20.004 157.274 21.7906 157.902 23.6344C159.135 27.3339 159.763 31.2072 159.762 35.1058L159.727 46.6368C159.727 54.3159 159.597 61.995 159.533 69.674V69.9279H159.288C154.691 69.8433 150.115 69.7935 145.543 69.674Z" fill="#FF974A"/>
<path d="M0 139.577V103.167H17.5497C19.4761 103.113 21.3971 103.399 23.2234 104.013C24.5428 104.469 25.7025 105.295 26.5638 106.392C27.3807 107.533 27.9248 108.846 28.1543 110.229C28.4523 111.957 28.5942 113.707 28.5781 115.46C28.5889 117.117 28.4554 118.772 28.1792 120.407C27.9577 121.801 27.4317 123.13 26.6386 124.298C25.7945 125.46 24.6229 126.343 23.2733 126.837C21.3866 127.504 19.3905 127.81 17.3901 127.737H9.22356V139.592L0 139.577ZM9.22356 120.735H13.8353C14.8367 120.756 15.838 120.686 16.8268 120.526C17.4327 120.442 17.9982 120.175 18.4471 119.76C18.8323 119.312 19.0722 118.759 19.1351 118.172C19.2541 117.268 19.3074 116.357 19.2947 115.445C19.3057 114.526 19.2607 113.607 19.1601 112.693C19.1188 112.098 18.8863 111.532 18.497 111.08C18.0609 110.668 17.503 110.408 16.9065 110.339C15.941 110.198 14.9655 110.136 13.9899 110.155H9.22356V120.735Z" fill="#4B2C65"/>
<path d="M34.0873 139.577V103.167H46.7609L54.0251 124.756H54.3941L61.6582 103.167H74.287V139.577H65.4225V115.923H65.0535L57.1512 139.577H50.9489L43.1014 115.923H42.6777V139.577H34.0873Z" fill="#4B2C65"/>
<path d="M96.6479 140C94.1184 140.044 91.5901 139.857 89.0946 139.443C87.4485 139.2 85.8796 138.586 84.5077 137.646C83.3857 136.779 82.5461 135.6 82.0946 134.257C81.5286 132.537 81.208 130.746 81.1424 128.937C81.0194 126.823 80.9579 124.302 80.9579 121.372C80.9579 118.443 81.0194 115.919 81.1424 113.803C81.2089 111.997 81.5294 110.209 82.0946 108.492C82.5447 107.149 83.3846 105.969 84.5077 105.103C85.8796 104.163 87.4485 103.549 89.0946 103.307C91.5901 102.892 94.1184 102.706 96.6479 102.749C99.1609 102.707 101.672 102.893 104.151 103.307C105.811 103.557 107.394 104.171 108.788 105.103C109.935 105.952 110.787 107.137 111.226 108.492C111.775 110.213 112.095 111.999 112.178 113.803C112.318 115.923 112.388 118.446 112.388 121.372C112.388 124.298 112.318 126.82 112.178 128.937C112.094 130.744 111.772 132.533 111.221 134.257C110.781 135.612 109.928 136.796 108.783 137.646C107.389 138.579 105.806 139.192 104.146 139.443C101.669 139.856 99.1592 140.042 96.6479 140ZM96.6479 132.908C97.6833 132.919 98.7185 132.874 99.749 132.774C100.431 132.732 101.085 132.493 101.634 132.087C102.146 131.617 102.496 130.997 102.631 130.315C102.879 129.202 103.012 128.066 103.03 126.926C103.079 125.483 103.104 123.632 103.104 121.372C103.104 119.113 103.079 117.26 103.03 115.813C103.012 114.675 102.878 113.541 102.631 112.429C102.496 111.748 102.146 111.127 101.634 110.657C101.085 110.251 100.431 110.011 99.749 109.966C97.6936 109.793 95.6272 109.793 93.5717 109.966C92.8833 110.008 92.2219 110.248 91.6672 110.657C91.1528 111.126 90.8031 111.747 90.6701 112.429C90.422 113.54 90.29 114.675 90.2762 115.813C90.223 117.26 90.1964 119.113 90.1964 121.372C90.1964 123.632 90.2114 125.476 90.2413 126.906C90.2548 128.047 90.3868 129.182 90.6351 130.295C90.7682 130.978 91.1179 131.599 91.6323 132.067C92.1865 132.477 92.8485 132.715 93.5368 132.754C94.5703 132.861 95.6089 132.913 96.6479 132.908Z" fill="#4B2C65"/>
<path d="M132.62 140C131.31 140 129.869 139.965 128.297 139.895C126.722 139.821 125.186 139.726 123.685 139.602C122.185 139.477 120.814 139.348 119.577 139.204V134.282C120.849 134.391 122.18 134.496 123.566 134.6C124.952 134.705 126.293 134.789 127.554 134.839C128.816 134.889 129.923 134.919 130.845 134.919C132.315 134.947 133.786 134.858 135.242 134.655C136.138 134.537 137.002 134.249 137.79 133.809C138.193 133.55 138.514 133.182 138.717 132.749C138.925 132.276 139.049 131.771 139.086 131.256C139.141 130.674 139.166 130.032 139.166 129.325C139.173 128.529 139.138 127.733 139.061 126.941C139.024 126.409 138.853 125.896 138.563 125.448C138.276 125.064 137.863 124.793 137.396 124.682C136.72 124.492 136.03 124.359 135.332 124.284L126.637 123.288C125.201 123.146 123.796 122.78 122.474 122.203C121.476 121.756 120.616 121.052 119.981 120.163C119.372 119.254 118.965 118.226 118.789 117.147C118.566 115.872 118.459 114.579 118.47 113.285C118.47 110.923 118.789 109.053 119.428 107.676C119.996 106.374 120.947 105.276 122.155 104.526C123.448 103.766 124.883 103.28 126.373 103.098C128.164 102.858 129.97 102.743 131.777 102.754C133.158 102.754 134.569 102.799 136.02 102.884C137.471 102.968 138.837 103.078 140.128 103.202C141.207 103.292 142.279 103.458 143.334 103.7V108.492C142.453 108.353 141.42 108.229 140.233 108.119C139.051 108.015 137.82 107.935 136.549 107.885C135.277 107.835 134.091 107.806 132.999 107.806C131.519 107.785 130.04 107.865 128.571 108.045C127.673 108.134 126.8 108.394 125.999 108.811C125.678 108.966 125.397 109.191 125.176 109.471C124.956 109.75 124.803 110.076 124.727 110.423C124.57 111.27 124.498 112.13 124.513 112.991C124.488 113.923 124.568 114.855 124.752 115.768C124.813 116.068 124.946 116.347 125.141 116.583C125.336 116.818 125.586 117.002 125.869 117.117C126.731 117.43 127.632 117.626 128.546 117.699L137.237 118.695C138.245 118.783 139.245 118.95 140.228 119.192C141.083 119.409 141.885 119.797 142.586 120.332C143.323 120.928 143.882 121.715 144.202 122.606C144.464 123.142 144.652 123.712 144.76 124.298C144.885 124.935 144.989 125.632 145.079 126.389C145.172 127.241 145.215 128.099 145.209 128.957C145.251 130.653 145.046 132.346 144.6 133.983C144.282 135.164 143.702 136.259 142.905 137.188C142.168 137.991 141.251 138.606 140.228 138.985C139.106 139.406 137.932 139.674 136.738 139.781C135.457 139.94 134.076 140 132.62 140Z" fill="#4B2C65"/>
<path d="M163.606 140C161.716 140.03 159.827 139.889 157.962 139.577C156.694 139.386 155.482 138.926 154.407 138.228C153.535 137.599 152.872 136.724 152.503 135.715C152.048 134.433 151.78 133.092 151.705 131.734C151.582 130.144 151.521 128.24 151.521 126.02C151.521 123.801 151.582 121.913 151.705 120.357C151.78 118.999 152.048 117.658 152.503 116.376C152.876 115.376 153.539 114.51 154.407 113.887C155.481 113.192 156.694 112.74 157.962 112.563C159.829 112.274 161.717 112.142 163.606 112.17C165.513 112.141 167.42 112.272 169.305 112.563C170.572 112.74 171.786 113.192 172.859 113.887C173.729 114.509 174.394 115.375 174.769 116.376C175.219 117.659 175.486 118.999 175.562 120.357C175.688 121.943 175.749 123.831 175.746 126.02C175.743 128.21 175.681 130.115 175.562 131.734C175.486 133.091 175.219 134.432 174.769 135.715C174.398 136.724 173.733 137.6 172.859 138.228C171.785 138.926 170.572 139.386 169.305 139.577C167.422 139.89 165.514 140.032 163.606 140ZM163.606 135.292C164.869 135.324 166.131 135.217 167.37 134.974C167.755 134.903 168.121 134.754 168.445 134.536C168.77 134.317 169.045 134.034 169.255 133.704C169.686 132.83 169.921 131.872 169.943 130.898C170.033 129.663 170.077 128.041 170.077 126.03C170.077 124.04 170.033 122.402 169.943 121.188C169.919 120.222 169.684 119.272 169.255 118.406C169.047 118.078 168.771 117.797 168.446 117.584C168.121 117.37 167.754 117.228 167.37 117.167C166.129 116.941 164.867 116.843 163.606 116.873C162.363 116.844 161.12 116.942 159.897 117.167C159.512 117.228 159.145 117.37 158.82 117.584C158.495 117.797 158.22 118.078 158.012 118.406C157.582 119.272 157.348 120.222 157.324 121.188C157.239 122.402 157.194 124.02 157.194 126.03C157.194 128.041 157.239 129.663 157.324 130.898C157.346 131.872 157.581 132.83 158.012 133.704C158.221 134.034 158.497 134.317 158.821 134.536C159.146 134.754 159.512 134.903 159.897 134.974C161.117 135.216 162.362 135.323 163.606 135.292Z" fill="#4B2C65"/>
<path d="M185.503 139.577V117.296H180.149V112.588H185.503V109.304C185.477 107.875 185.6 106.447 185.872 105.044C186.051 104.077 186.481 103.175 187.119 102.426C187.758 101.759 188.566 101.276 189.457 101.027C190.624 100.696 191.825 100.501 193.037 100.445C194.448 100.36 196.113 100.316 198.022 100.316V104.546C196.537 104.546 195.343 104.591 194.443 104.68C193.728 104.719 193.027 104.888 192.373 105.178C192.145 105.292 191.942 105.452 191.778 105.648C191.614 105.844 191.493 106.072 191.421 106.318C191.243 106.966 191.162 107.637 191.182 108.308V112.598H198.022V117.306H191.177V139.587L185.503 139.577Z" fill="#4B2C65"/>
<path d="M206.074 139.577V117.296H200.665V112.588H206.074V104.755H211.693V112.588H218V117.296H211.693V139.577H206.074Z" fill="#4B2C65"/>
</g>
<defs>
<radialGradient id="paint0_radial" cx="0" cy="0" r="1" gradientUnits="userSpaceOnUse" gradientTransform="translate(89.7676 32.075) scale(44.0038 43.9245)">
<stop stop-color="#66730D"/>
<stop offset="0.18" stop-color="#6D7B11"/>
<stop offset="0.45" stop-color="#81911A"/>
<stop offset="0.78" stop-color="#A2B42A"/>
<stop offset="1" stop-color="#BACF36"/>
</radialGradient>
<radialGradient id="paint1_radial" cx="0" cy="0" r="1" gradientUnits="userSpaceOnUse" gradientTransform="translate(142.491 37.1793) scale(29.7697 53.7859)">
<stop stop-color="#A74303"/>
<stop offset="1" stop-color="#EF7103"/>
</radialGradient>
<clipPath id="clip0">
<rect width="218" height="140" fill="white"/>
</clipPath>
</defs>
</svg>
