<svg width="244" height="49" viewBox="0 0 244 49" fill="none" xmlns="http://www.w3.org/2000/svg">
<g clip-path="url(#clip0_210_754)">
<path d="M92.7583 41.8506V16.3566H104.932C106.281 16.3218 107.595 16.4961 108.875 16.9146C109.774 17.2285 110.604 17.8214 111.192 18.5887C111.746 19.3908 112.126 20.2976 112.299 21.2741C112.507 22.4947 112.61 23.7154 112.61 24.936C112.61 26.0869 112.541 27.2726 112.334 28.3887C112.195 29.3652 111.815 30.3068 111.261 31.1089C110.674 31.9111 109.878 32.5388 108.944 32.8876C107.63 33.341 106.247 33.5851 104.863 33.5154H99.1912V41.8506H92.7583ZM99.1566 28.6328H102.338C103.03 28.6328 103.722 28.5979 104.414 28.4933C104.829 28.4235 105.209 28.2492 105.52 27.9702C105.797 27.6563 105.97 27.2726 106.005 26.8541C106.074 26.2264 106.143 25.5986 106.108 24.936C106.108 24.3082 106.074 23.6456 106.005 23.0178C105.97 22.5993 105.797 22.2157 105.555 21.9018C105.244 21.6228 104.863 21.4484 104.448 21.3787C103.791 21.2741 103.099 21.2392 102.408 21.2392H99.0874V28.6328H99.1566Z" fill="white"/>
<path d="M116.415 41.8506V16.3567H125.199L130.249 31.4926H130.525L135.575 16.3567H144.325V41.8506H138.169V25.2848H137.927L132.428 41.8506H128.139L122.709 25.2848H122.398V41.8506H116.415Z" fill="white"/>
<path d="M159.819 42.1645C158.055 42.1994 156.326 42.0599 154.597 41.7809C153.455 41.6065 152.383 41.188 151.415 40.5253C150.619 39.9325 150.066 39.0955 149.755 38.1538C149.34 36.9332 149.132 35.6777 149.063 34.4221C148.994 32.9574 148.925 31.1787 148.925 29.1211C148.925 27.0634 148.959 25.2848 149.063 23.82C149.098 22.5645 149.34 21.309 149.72 20.0883C150.032 19.1467 150.619 18.3097 151.38 17.7168C152.349 17.0542 153.421 16.6357 154.562 16.4613C156.291 16.1823 158.055 16.0428 159.785 16.0777C161.514 16.0428 163.243 16.1823 164.972 16.4613C166.114 16.6357 167.22 17.0542 168.189 17.7168C168.984 18.3097 169.572 19.1467 169.884 20.0883C170.264 21.309 170.472 22.5645 170.541 23.82C170.644 25.3196 170.679 27.0634 170.679 29.1211C170.679 31.1787 170.644 32.9574 170.541 34.4221C170.472 35.6777 170.264 36.9332 169.884 38.1538C169.572 39.0955 168.984 39.9325 168.189 40.5253C167.22 41.188 166.114 41.6065 164.972 41.7809C163.278 42.0599 161.548 42.1994 159.819 42.1645ZM159.819 37.1773C160.546 37.1773 161.272 37.1424 161.964 37.0727C162.448 37.0378 162.897 36.8634 163.278 36.5844C163.624 36.2705 163.866 35.8172 163.969 35.3289C164.142 34.5616 164.246 33.7595 164.246 32.9574C164.281 31.946 164.315 30.6556 164.315 29.0513C164.315 27.4471 164.315 26.1567 164.246 25.1453C164.246 24.3431 164.142 23.541 163.969 22.7737C163.866 22.2855 163.624 21.867 163.278 21.5182C162.897 21.2392 162.448 21.0648 161.964 21.03C160.545 20.8905 159.093 20.8905 157.675 21.03C157.191 21.0648 156.741 21.2392 156.361 21.5182C156.015 21.8321 155.773 22.2855 155.669 22.7737C155.496 23.541 155.392 24.3431 155.392 25.1453C155.358 26.1567 155.323 27.4471 155.323 29.0513C155.323 30.6556 155.358 31.946 155.392 32.9574C155.392 33.7595 155.496 34.5616 155.669 35.3289C155.773 35.8172 156.015 36.2357 156.361 36.5844C156.741 36.8634 157.191 37.0378 157.675 37.0727C158.401 37.1773 159.093 37.2122 159.819 37.1773Z" fill="white"/>
<path d="M184.755 42.1644C183.856 42.1644 182.853 42.1296 181.746 42.0947C180.639 42.0598 179.602 41.9901 178.53 41.8854C177.458 41.7808 176.524 41.7111 175.694 41.6064V38.1538C176.593 38.2235 177.492 38.2933 178.461 38.363C179.429 38.4328 180.363 38.5025 181.227 38.5374C182.092 38.5723 182.887 38.6071 183.51 38.6071C184.548 38.642 185.551 38.5723 186.554 38.4328C187.176 38.363 187.764 38.1538 188.317 37.8399C188.594 37.6655 188.836 37.4214 188.975 37.1075C189.113 36.7587 189.217 36.41 189.251 36.0612C189.286 35.6427 189.32 35.1893 189.32 34.7011C189.32 34.1431 189.286 33.5851 189.251 33.0271C189.217 32.6434 189.113 32.2947 188.905 31.9808C188.698 31.7018 188.421 31.5274 188.11 31.4577C187.626 31.3182 187.176 31.2484 186.657 31.1787L180.639 30.4812C179.671 30.3765 178.703 30.0975 177.803 29.7139C177.112 29.4 176.524 28.9118 176.074 28.284C175.659 27.6562 175.382 26.9239 175.244 26.1566C175.106 25.2498 175.037 24.3431 175.037 23.4363C175.037 21.7972 175.244 20.4719 175.694 19.4954C176.074 18.5886 176.766 17.8214 177.596 17.2982C178.495 16.7751 179.498 16.4264 180.536 16.2869C181.781 16.1125 183.026 16.0427 184.271 16.0427C185.239 16.0427 186.208 16.0776 187.211 16.1474C188.214 16.2171 189.182 16.2869 190.047 16.3566C190.808 16.4264 191.534 16.531 192.26 16.7054V20.0883C191.638 19.9836 190.946 19.9139 190.116 19.8093C189.286 19.7046 188.456 19.6698 187.557 19.6349C186.657 19.6 185.862 19.5651 185.101 19.5651C184.063 19.5651 183.06 19.6 182.023 19.7395C181.4 19.8093 180.778 19.9836 180.224 20.2975C179.775 20.5068 179.464 20.9253 179.325 21.4135C179.221 22.0064 179.187 22.5993 179.187 23.1922C179.152 23.8548 179.221 24.5175 179.36 25.1452C179.429 25.5637 179.74 25.9474 180.155 26.1217C180.743 26.331 181.366 26.4705 182.023 26.5402L188.041 27.2377C188.732 27.3075 189.424 27.4121 190.116 27.5865C190.704 27.726 191.257 28.005 191.741 28.3886C192.26 28.8071 192.641 29.3651 192.848 29.9929C193.021 30.3765 193.159 30.7602 193.229 31.1787C193.298 31.632 193.401 32.1203 193.436 32.6434C193.505 33.2363 193.54 33.8292 193.54 34.457C193.574 35.6427 193.436 36.8285 193.125 37.9794C192.917 38.8164 192.502 39.5837 191.949 40.2114C191.43 40.7694 190.808 41.2228 190.081 41.4669C189.286 41.7459 188.49 41.9552 187.66 42.0249C186.761 42.1296 185.758 42.1644 184.755 42.1644Z" fill="white"/>
<path d="M206.268 42.1644C204.953 42.1992 203.639 42.0946 202.359 41.8854C201.495 41.7459 200.63 41.432 199.904 40.9437C199.316 40.5252 198.832 39.8975 198.59 39.2C198.278 38.2932 198.105 37.3516 198.036 36.4099C197.967 35.2939 197.898 33.9686 197.898 32.3992C197.898 30.8299 197.933 29.5046 198.036 28.4234C198.071 27.4818 198.278 26.5402 198.59 25.6334C198.832 24.9359 199.316 24.3081 199.904 23.8896C200.63 23.4014 201.495 23.0875 202.359 22.948C204.953 22.5644 207.616 22.5644 210.245 22.948C211.11 23.0526 211.974 23.3665 212.735 23.8548C213.323 24.2733 213.807 24.901 214.049 25.5985C214.361 26.5053 214.568 27.4469 214.603 28.3886C214.706 29.5046 214.741 30.8299 214.741 32.3644C214.741 33.8989 214.706 35.2242 214.603 36.375C214.568 37.3167 214.361 38.2583 214.049 39.1651C213.807 39.8626 213.323 40.4903 212.735 40.9089C212.009 41.3971 211.144 41.711 210.28 41.8505C208.931 42.0597 207.582 42.1644 206.268 42.1644ZM206.268 38.8512C207.132 38.8861 208.031 38.8163 208.862 38.642C209.415 38.5373 209.864 38.2234 210.176 37.7352C210.487 37.1074 210.625 36.4448 210.66 35.7822C210.729 34.9103 210.764 33.7594 210.764 32.3644C210.764 30.9694 210.729 29.8185 210.66 28.9815C210.66 28.3188 210.487 27.6562 210.176 27.0284C209.899 26.575 209.415 26.2612 208.896 26.1565C208.031 26.017 207.167 25.9473 206.302 25.9473C205.438 25.9124 204.573 25.9822 203.708 26.1565C203.155 26.2263 202.705 26.575 202.394 27.0284C202.083 27.6213 201.944 28.2839 201.91 28.9815C201.841 29.8185 201.806 30.9694 201.806 32.3644C201.806 33.7594 201.841 34.9103 201.91 35.7822C201.91 36.4797 202.083 37.1423 202.394 37.7352C202.671 38.1886 203.155 38.5373 203.708 38.642C204.538 38.8163 205.403 38.8861 206.268 38.8512Z" fill="white"/>
<path d="M221.451 41.8505V26.2612H217.75V22.9481H221.451V20.6463C221.416 19.6349 221.52 18.6584 221.693 17.647C221.831 16.9844 222.108 16.3217 222.557 15.7986C223.007 15.3452 223.56 14.9965 224.183 14.8221C224.978 14.578 225.808 14.4385 226.673 14.4036C227.641 14.3338 228.817 14.299 230.132 14.299V17.2634C229.094 17.2634 228.264 17.2982 227.641 17.368C227.157 17.4029 226.673 17.5075 226.223 17.7167C225.912 17.8911 225.67 18.1701 225.566 18.5189C225.428 18.9723 225.393 19.4605 225.393 19.9139V22.9132H230.132V26.2263H225.393V41.8505H221.451Z" fill="white"/>
<path d="M235.7 41.8506V26.2613H231.964V22.9481H235.7V17.4727H239.608V22.9481H244V26.2613H239.608V41.8506H235.7Z" fill="white"/>
<path d="M9.47657 48.8598H8.78486C6.0872 48.8598 3.38953 48.8598 0.691873 48.8598C0.103922 48.8598 0.000165524 48.6854 0.000165524 48.1274C0.0347509 40.4199 0.0347509 32.6776 0.000165524 24.9701C-0.0690053 20.9246 0.864801 16.9488 2.66324 13.3566C4.63461 9.45053 7.60895 6.17224 11.275 3.87046C13.6268 2.33594 16.2553 1.2548 19.0221 0.627046C21.3739 0.0690385 23.7949 -0.105339 26.2159 0.103914C34.2397 0.940925 40.4997 4.74235 44.8228 11.6477C47.6589 16.0769 48.9039 21.3779 48.3506 26.6093C47.5897 34.247 44.062 40.3153 37.7674 44.6747C36.3148 45.6512 34.7931 46.5231 33.2022 47.2206C31.7841 47.8833 30.2624 48.3367 28.706 48.511C27.4264 48.6157 26.1813 48.7552 24.9017 48.8947C24.452 48.9295 24.2445 48.8249 24.2445 48.3018C24.2445 45.5117 24.2445 42.7217 24.2445 39.8968C24.2445 39.4783 24.3483 39.3039 24.7979 39.269C30.2624 38.9552 34.3781 36.3395 37.0757 31.5964C38.5283 29.0157 39.1508 26.0512 38.805 23.0868C38.3208 18.1345 35.8306 14.368 31.6804 11.7872C28.8098 9.97366 25.3513 9.27615 21.9965 9.86904C16.8087 10.7409 13.0043 13.6356 10.7216 18.4135C9.75325 20.4363 9.40739 22.6683 9.44198 24.9352C9.47657 32.6078 9.44198 40.2804 9.44198 47.953L9.47657 48.8598Z" fill="url(#paint0_radial_210_754)"/>
<path d="M26.181 0.104614C29.2591 0.348742 32.2681 1.15088 35.0695 2.44127C37.8709 3.80141 40.361 5.68469 42.4362 8.02134C44.5113 10.358 46.1368 13.0434 47.2781 15.9381C48.3849 18.8676 48.9036 21.9715 48.7653 25.1103C48.627 28.2491 47.9698 31.3181 46.7593 34.2128C45.5489 37.1075 43.7504 39.7231 41.5024 41.8854C39.2543 44.0477 36.695 45.7914 33.859 47.0818C32.4756 47.7445 30.9884 48.2327 29.4666 48.4769C27.9449 48.6164 26.4231 48.7559 24.9014 48.8605L29.4666 48.2676C30.9538 47.9537 32.4064 47.4655 33.7552 46.7331C36.5221 45.4427 39.0122 43.664 41.1911 41.5018C43.3354 39.3395 45.0647 36.7936 46.2406 33.9687C47.3819 31.1438 48.039 28.1096 48.1428 25.0754C48.2811 22.0413 47.7969 18.9722 46.7593 16.1124C46.2406 14.6826 45.5489 13.3224 44.7534 11.9971C43.9579 10.7067 43.0587 9.45123 42.0903 8.30034C40.1189 5.96369 37.698 4.04554 34.9657 2.6854C33.6169 1.98789 32.1989 1.42988 30.7117 1.01138C29.19 0.627746 27.7028 0.313867 26.181 0.104614Z" fill="#D6E50E"/>
<path d="M10.756 18.3794C10.2718 19.5652 9.96049 20.7858 9.82215 22.0762C9.75298 22.7039 9.71839 23.3317 9.68381 23.9595C9.68381 24.5872 9.68381 25.215 9.71839 25.8776C9.78756 28.4235 9.78756 31.0043 9.78756 33.5502C9.78756 36.0961 9.78756 38.6769 9.71839 41.2228C9.64922 43.7687 9.58005 46.3495 9.47629 48.8954V48.9303H9.44171L8.75 48.8954L9.44171 48.8605L9.40712 48.8954C9.30337 46.3495 9.19961 43.7687 9.16502 41.2228C9.13044 38.6769 9.09585 36.0961 9.09585 33.5502C9.09585 31.0043 9.13044 28.4235 9.16502 25.8776C9.16502 25.2499 9.16503 24.5872 9.2342 23.9595C9.26878 23.2968 9.33795 22.6691 9.47629 22.0413C9.71839 20.7509 10.1334 19.4954 10.756 18.3794Z" fill="#D6E50E"/>
<path d="M71.4535 48.8257V48.0584C71.4535 40.4207 71.4535 32.7481 71.4535 25.1104C71.5227 21.3787 70.7618 17.647 69.2055 14.2292C66.0236 7.3239 59.8328 2.30184 52.4661 0.627814C50.1143 0.104682 47.7279 -0.0696954 45.3415 0.0698064C44.4769 0.139557 43.6123 0.313935 42.7822 0.558063C43.3702 0.73244 43.9581 0.871942 44.5115 1.04632C49.0768 2.37159 53.1233 5.057 56.1668 8.75379C59.8674 13.1481 61.908 18.763 61.908 24.5175C61.908 32.3296 61.908 40.1766 61.908 47.9887V48.7908H71.4535V48.8257Z" fill="url(#paint1_radial_210_754)"/>
<path d="M61.9424 48.8256C65.1242 48.7559 68.2715 48.721 71.4534 48.6513L71.2804 48.8256C71.2459 43.4548 71.1421 38.0491 71.1421 32.6783L71.1075 24.6221C71.0729 21.9716 70.6579 19.321 69.8624 16.7751C69.4474 15.5196 68.9286 14.299 68.3061 13.1132C67.6836 11.9274 66.9918 10.8114 66.1964 9.76515C64.6055 7.63775 62.6687 5.78935 60.4552 4.32458C55.9937 1.32529 50.7021 -0.139475 45.376 0.104653C48.0391 -0.139475 50.7367 0.0697773 53.3652 0.697535C55.9937 1.32529 58.4838 2.44131 60.7319 3.90608C63.0145 5.37084 65.0205 7.21924 66.6806 9.38152C67.5106 10.4627 68.2369 11.6135 68.894 12.7993C69.5512 13.9851 70.1045 15.2406 70.5196 16.531C71.3842 19.1118 71.7992 21.8321 71.7992 24.5523L71.7646 32.6434C71.7646 38.0143 71.6609 43.4199 71.6263 48.7908V48.9651H71.4534C68.2715 48.9303 65.0897 48.8954 61.9424 48.8256Z" fill="#FF974A"/>
</g>
<defs>
<radialGradient id="paint0_radial_210_754" cx="0" cy="0" r="1" gradientUnits="userSpaceOnUse" gradientTransform="translate(23.2439 22.4772) scale(30.5251 30.7811)">
<stop stop-color="#66730D"/>
<stop offset="0.18" stop-color="#6D7B11"/>
<stop offset="0.45" stop-color="#81911A"/>
<stop offset="0.78" stop-color="#A2B42A"/>
<stop offset="1" stop-color="#BACF36"/>
</radialGradient>
<radialGradient id="paint1_radial_210_754" cx="0" cy="0" r="1" gradientUnits="userSpaceOnUse" gradientTransform="translate(59.8144 26.055) scale(20.6509 37.6917)">
<stop stop-color="#A74303"/>
<stop offset="1" stop-color="#EF7103"/>
</radialGradient>
<clipPath id="clip0_210_754">
<rect width="244" height="49" fill="white"/>
</clipPath>
</defs>
</svg>
