<svg width="131" height="26" viewBox="0 0 131 26" fill="none" xmlns="http://www.w3.org/2000/svg">
<path d="M49.812 21.9205V8.56363H56.346C57.0627 8.54108 57.7779 8.64247 58.459 8.86321C58.951 9.03025 59.3832 9.33422 59.7031 9.7382C60.0075 10.1555 60.2102 10.6362 60.2954 11.1429C60.4075 11.778 60.4603 12.4219 60.4532 13.0665C60.4581 13.6748 60.4084 14.2825 60.3046 14.8822C60.222 15.3931 60.0268 15.88 59.7328 16.3089C59.4206 16.7347 58.988 17.0606 58.4887 17.246C57.7854 17.491 57.0414 17.6032 56.2958 17.5766H53.247V21.9205H49.812ZM53.247 15.0046H54.9608C55.3338 15.0124 55.7068 14.9861 56.0749 14.9261C56.3003 14.8963 56.5107 14.798 56.6765 14.6447C56.8227 14.4831 56.9142 14.2807 56.9383 14.0657C56.9836 13.7345 57.0035 13.4005 56.9977 13.0665C57.0013 12.7291 56.9852 12.3918 56.9494 12.0563C56.9337 11.8375 56.8471 11.6295 56.7025 11.4626C56.5393 11.3125 56.3319 11.2172 56.1102 11.1904C55.7505 11.1395 55.3873 11.1169 55.024 11.1228H53.247V15.0046Z" fill="#FDFEFF"/>
<path d="M62.5068 21.9205V8.5636H67.2249L69.9303 16.4879H70.0695L72.773 8.5636H77.4725V21.9205H74.1749V13.2436H74.0375L71.0963 21.9205H68.7846L65.8639 13.2436H65.7061V21.9205H62.5068Z" fill="#FDFEFF"/>
<path d="M85.8058 22.0831C84.8656 22.0977 83.926 22.0293 82.9983 21.8785C82.3854 21.7899 81.8015 21.5637 81.2919 21.2172C80.8732 20.9006 80.5603 20.468 80.3932 19.9751C80.1785 19.3443 80.0554 18.6869 80.0274 18.0223C79.9816 17.2466 79.9587 16.3211 79.9587 15.2457C79.9587 14.1704 79.9816 13.2443 80.0274 12.4673C80.0526 11.8032 80.1726 11.1458 80.3839 10.5146C80.551 10.0216 80.8639 9.58907 81.2826 9.27239C81.7954 8.92543 82.3824 8.69917 82.9983 8.61112C83.9259 8.45926 84.8655 8.38957 85.8058 8.40288C86.7385 8.38816 87.6706 8.45603 88.5909 8.60564C89.2097 8.69782 89.8001 8.92365 90.3196 9.26691C90.7465 9.57773 91.0639 10.012 91.2276 10.5091C91.432 11.142 91.5512 11.7985 91.5822 12.4618C91.6367 13.2388 91.6633 14.1649 91.6621 15.2402C91.6608 16.3156 91.6342 17.2411 91.5822 18.0168C91.5514 18.6802 91.4321 19.3368 91.2276 19.9696C91.0639 20.4666 90.7465 20.9009 90.3196 21.2118C89.8005 21.5558 89.2099 21.7817 88.5909 21.873C87.6709 22.0252 86.7387 22.0955 85.8058 22.0831ZM85.8058 19.48C86.1914 19.484 86.5769 19.4676 86.9607 19.4307C87.2138 19.4145 87.4568 19.327 87.6607 19.1786C87.8523 19.0067 87.9825 18.7787 88.0321 18.5283C88.1253 18.1199 88.1751 17.7029 88.1806 17.2843C88.201 16.7546 88.2103 16.0732 88.2103 15.2457C88.2103 14.4182 88.2103 13.7369 88.1806 13.2053C88.1751 12.7873 88.1253 12.371 88.0321 11.9631C87.9825 11.7122 87.8523 11.4836 87.6607 11.311C87.4564 11.1634 87.2136 11.0759 86.9607 11.0589C86.1953 10.9931 85.4255 10.9931 84.6601 11.0589C84.4036 11.0748 84.1569 11.1622 83.949 11.311C83.758 11.4841 83.6279 11.7125 83.5776 11.9631C83.4853 12.3711 83.4355 12.7873 83.4291 13.2053C83.4105 13.7369 83.3994 14.4164 83.3994 15.2457C83.3994 16.0751 83.4105 16.7546 83.4291 17.2843C83.4355 17.7029 83.4853 18.1197 83.5776 18.5283C83.6279 18.7784 83.758 19.0062 83.949 19.1786C84.1564 19.3282 84.4034 19.4157 84.6601 19.4307C85.0408 19.4672 85.4233 19.4837 85.8058 19.48Z" fill="#FDFEFF"/>
<path d="M99.1914 22.0831C98.7049 22.0831 98.1689 22.0697 97.5834 22.0429C96.9966 22.0173 96.4248 21.9826 95.864 21.937C95.3032 21.8913 94.7945 21.8438 94.334 21.7908V19.9842C94.8093 20.0244 95.3051 20.0628 95.8194 20.1011C96.3338 20.1395 96.837 20.1687 97.3049 20.1888C97.7728 20.2089 98.1869 20.218 98.5285 20.218C99.0767 20.2273 99.6249 20.195 100.168 20.1212C100.501 20.0772 100.822 19.9719 101.115 19.8107C101.265 19.7154 101.385 19.5806 101.46 19.4216C101.537 19.2478 101.584 19.0626 101.6 18.8736C101.62 18.6598 101.629 18.4242 101.629 18.1648C101.632 17.8727 101.619 17.5806 101.59 17.2898C101.574 17.0951 101.511 16.907 101.405 16.7418C101.296 16.6027 101.143 16.5037 100.97 16.4605C100.718 16.3919 100.46 16.3431 100.2 16.3144L96.9614 15.949C96.4357 15.8928 95.922 15.7566 95.4388 15.5453C95.0666 15.3821 94.746 15.1234 94.5104 14.7964C94.2837 14.4627 94.1318 14.0853 94.0648 13.6894C93.9834 13.2212 93.9442 12.7468 93.9478 12.2718C93.9478 11.4048 94.066 10.7179 94.3024 10.2113C94.5153 9.73422 94.87 9.33172 95.32 9.05684C95.8008 8.7779 96.3349 8.59943 96.889 8.53257C97.5542 8.44367 98.2248 8.40034 98.8961 8.40288C99.4086 8.40288 99.936 8.41932 100.474 8.45037C101.013 8.48142 101.525 8.52161 102.006 8.56728C102.408 8.59946 102.807 8.66052 103.2 8.74995V10.5182C102.872 10.4652 102.485 10.4196 102.045 10.3812C101.605 10.3428 101.147 10.3136 100.673 10.2935C100.2 10.2734 99.7577 10.2643 99.3492 10.2643C98.7982 10.2567 98.2473 10.286 97.7004 10.352C97.3642 10.388 97.0379 10.4859 96.7386 10.6406C96.6192 10.6982 96.5145 10.7815 96.4322 10.8842C96.3499 10.987 96.2922 11.1066 96.2632 11.2343C96.2061 11.5446 96.18 11.8597 96.1852 12.175C96.1758 12.5176 96.2057 12.8602 96.2744 13.1962C96.2958 13.3081 96.3454 13.4129 96.4187 13.501C96.4921 13.5891 96.5867 13.6576 96.694 13.7003C97.0152 13.8151 97.3505 13.887 97.6911 13.9141L100.929 14.2794C101.302 14.3115 101.671 14.3725 102.034 14.4621C102.353 14.541 102.653 14.6834 102.914 14.8804C103.188 15.0975 103.396 15.3843 103.516 15.7097C103.613 15.9067 103.683 16.1156 103.724 16.3308C103.768 16.5646 103.809 16.8204 103.841 17.098C103.876 17.411 103.893 17.7257 103.891 18.0406C103.906 18.6631 103.829 19.2844 103.664 19.8856C103.545 20.3188 103.329 20.7203 103.031 21.0601C102.757 21.3558 102.415 21.5826 102.034 21.7214C101.616 21.8765 101.179 21.9742 100.734 22.0119C100.266 22.0594 99.7447 22.0831 99.1914 22.0831Z" fill="#FDFEFF"/>
<path d="M110.742 22.0831C110.038 22.0932 109.334 22.0413 108.639 21.9278C108.167 21.8578 107.716 21.6883 107.317 21.4309C106.992 21.2035 106.744 20.8853 106.606 20.5176C106.437 20.0468 106.337 19.5547 106.31 19.0562C106.264 18.4741 106.241 17.7745 106.24 16.9573C106.238 16.1402 106.262 15.4479 106.31 14.8804C106.338 14.3819 106.437 13.8898 106.606 13.419C106.744 13.0513 106.992 12.7331 107.317 12.5056C107.716 12.2499 108.167 12.084 108.639 12.0197C110.04 11.8249 111.463 11.8249 112.865 12.0197C113.338 12.0801 113.791 12.2429 114.192 12.4965C114.517 12.724 114.765 13.0422 114.904 13.4099C115.073 13.8806 115.173 14.3727 115.201 14.8712C115.248 15.4533 115.271 16.1457 115.269 16.9482C115.268 17.7507 115.245 18.4504 115.201 19.0471C115.173 19.5457 115.073 20.0378 114.904 20.5084C114.765 20.8761 114.517 21.1944 114.192 21.4218C113.793 21.6795 113.342 21.849 112.87 21.9187C112.167 22.036 111.455 22.0911 110.742 22.0831ZM110.742 20.3532C111.213 20.3658 111.683 20.3266 112.144 20.2363C112.288 20.2114 112.424 20.157 112.545 20.0768C112.665 19.9965 112.767 19.8921 112.844 19.7705C113.007 19.4507 113.095 19.0994 113.102 18.742C113.134 18.289 113.151 17.6917 113.151 16.9537C113.151 16.2157 113.134 15.6238 113.102 15.1763C113.094 14.822 113.006 14.4739 112.844 14.157C112.768 14.0367 112.667 13.9338 112.547 13.855C112.427 13.7763 112.292 13.7235 112.15 13.7003C111.687 13.6183 111.218 13.5828 110.748 13.5944C110.284 13.5833 109.821 13.6188 109.365 13.7003C109.222 13.7228 109.085 13.7752 108.964 13.854C108.844 13.9327 108.741 14.0361 108.665 14.157C108.504 14.4741 108.417 14.8221 108.408 15.1763C108.375 15.6232 108.358 16.2157 108.358 16.9537C108.358 17.6844 108.375 18.289 108.408 18.742C108.416 19.0993 108.503 19.4505 108.665 19.7705C108.742 19.8921 108.844 19.9965 108.964 20.0768C109.085 20.157 109.221 20.2114 109.365 20.2363C109.818 20.3256 110.28 20.3648 110.742 20.3532Z" fill="#FDFEFF"/>
<path d="M118.897 21.9205V13.7496H116.903V12.0197H118.897V10.8159C118.887 10.2914 118.933 9.7672 119.035 9.25227C119.101 8.89746 119.261 8.56607 119.499 8.29142C119.736 8.04567 120.036 7.86765 120.368 7.77629C120.803 7.65467 121.25 7.58295 121.701 7.56257C122.226 7.52969 122.845 7.51324 123.558 7.51324V9.06777C123.005 9.06777 122.56 9.08421 122.225 9.11709C121.959 9.13037 121.699 9.19232 121.456 9.29977C121.371 9.34126 121.295 9.39967 121.234 9.47135C121.172 9.54302 121.127 9.6264 121.1 9.71626C121.034 9.95419 121.004 10.2004 121.01 10.4469V12.0197H123.558V13.7496H121.009V21.9205H118.897Z" fill="#FDFEFF"/>
<path d="M126.557 21.9205V13.7497H124.544V12.0198H126.557V9.14636H128.649V12.0198H131V13.7497H128.649V21.9205H126.557Z" fill="#FDFEFF"/>
<path d="M5.09871 25.5995H4.71807C3.27163 25.5995 1.82519 25.5995 0.380615 25.5995C0.0686746 25.5995 0.00925748 25.5045 0.00925748 25.2141C0.0191603 21.1722 0.0191603 17.1297 0.00925748 13.0865C-0.0203125 10.9727 0.470207 8.88326 1.43898 6.99629C2.49264 4.95797 4.08776 3.23845 6.05495 2.02034C7.33072 1.22472 8.73749 0.65357 10.2123 0.332456C11.4742 0.0360244 12.7766 -0.0571289 14.0688 0.0566227C18.371 0.500513 21.7448 2.48797 24.0658 6.09938C25.5834 8.42409 26.2501 11.1883 25.956 13.936C25.5549 17.9291 23.6629 21.1186 20.2798 23.3947C19.5055 23.9113 18.6837 24.3553 17.8251 24.7208C17.0641 25.0752 16.2483 25.3018 15.4113 25.3913C14.7299 25.4406 14.0503 25.5228 13.3688 25.5977C13.1219 25.6251 13.0198 25.5557 13.0235 25.289C13.0321 23.8276 13.0321 22.3595 13.0235 20.8848C13.0235 20.6674 13.0736 20.5742 13.3261 20.5596C16.2617 20.3934 18.462 19.0325 19.9177 16.5408C20.7029 15.1921 21.0283 13.6313 20.8461 12.0873C20.5769 9.48427 19.2511 7.52056 17.0286 6.16879C15.4824 5.21054 13.6304 4.84939 11.8296 5.15497C9.04438 5.60434 7.00192 7.12964 5.77272 9.63771C5.24911 10.7063 5.07457 11.859 5.08014 13.0518C5.10057 17.0706 5.08943 21.0894 5.08943 25.1081L5.09871 25.5995Z" fill="url(#paint0_radial)"/>
<path d="M14.0688 0.0566101C15.7183 0.181394 17.3319 0.595259 18.8333 1.27868C20.3373 1.98339 21.6827 2.97715 22.7901 4.20141C23.9027 5.4209 24.7832 6.82733 25.3896 8.35352C25.9805 9.8843 26.2538 11.5159 26.1936 13.1523C26.1263 14.7926 25.7636 16.4081 25.1222 17.9237C24.4753 19.4406 23.5155 20.809 22.3036 21.9424C21.1035 23.0739 19.7141 23.9934 18.1964 24.6606C17.4468 25.0091 16.6521 25.255 15.8346 25.3912C15.0102 25.4734 14.1969 25.5319 13.3762 25.5977L15.8198 25.2944C16.6201 25.1349 17.3942 24.8675 18.1203 24.4998C19.5989 23.8189 20.9469 22.8919 22.105 21.7597C23.2633 20.6357 24.1829 19.2963 24.8103 17.8195C25.4258 16.335 25.7685 14.7547 25.8223 13.1523C25.8975 11.5554 25.6449 9.96 25.0795 8.4613C24.7924 7.71435 24.4343 6.9957 24.01 6.31492C23.5812 5.63499 23.1028 4.98663 22.5785 4.37495C21.515 3.15269 20.2147 2.15105 18.7535 1.42847C18.0247 1.06485 17.2624 0.77004 16.4771 0.547995C15.6869 0.329106 14.8822 0.16491 14.0688 0.0566101Z" fill="#D6E50E"/>
<path d="M5.78202 9.62128C5.52458 10.2381 5.35645 10.8875 5.28254 11.5503C5.24333 11.8796 5.22164 12.2107 5.21755 12.5422C5.21755 12.8728 5.21755 13.2053 5.23241 13.5414C5.26397 14.8804 5.27326 16.2212 5.27697 17.5602C5.28069 18.8991 5.27697 20.2399 5.24726 21.5789C5.21755 22.9179 5.18042 24.2587 5.11729 25.5977V25.6178H5.09872L4.71808 25.5995L5.09872 25.5794L5.0783 25.5995C5.01516 24.2587 4.96689 22.9197 4.94461 21.5807C4.92233 20.2418 4.90933 18.901 4.90747 17.562C4.90561 16.223 4.91861 14.8822 4.94832 13.5432C4.9576 13.2089 4.94832 12.8728 4.97989 12.5331C5.0024 12.1948 5.04455 11.8582 5.10615 11.5247C5.22939 10.8595 5.45743 10.2173 5.78202 9.62128Z" fill="#D6E50E"/>
<path d="M38.3667 25.5739V25.1647C38.3667 21.1557 38.3667 17.1461 38.3667 13.1359C38.4028 11.1729 37.9903 9.22711 37.1598 7.442C36.317 5.6599 35.0691 4.09225 33.5124 2.86014C31.9558 1.62803 30.1321 0.764449 28.1822 0.336106C26.9284 0.0650509 25.6421 -0.031489 24.3609 0.0493125C23.8959 0.0863282 23.436 0.170811 22.9888 0.301398C23.3007 0.387254 23.6127 0.467629 23.9172 0.557138C26.364 1.26032 28.5432 2.66291 30.1783 4.58686C32.1681 6.89556 33.2575 9.82579 33.2512 12.8527C33.2512 16.9519 33.2512 21.051 33.2512 25.1501V25.5739H38.3667Z" fill="url(#paint1_radial)"/>
<path d="M33.2588 25.5739C34.9615 25.5319 36.6642 25.5137 38.3668 25.4826L38.274 25.5739C38.2499 22.7553 38.2034 19.9367 38.2034 17.1163L38.1867 12.8911C38.1748 11.4976 37.9494 10.1139 37.5183 8.78648C37.2948 8.12646 37.014 7.48659 36.679 6.87391C36.3471 6.25865 35.9659 5.67041 35.5389 5.11479C34.6777 4.00501 33.6378 3.0412 32.4604 2.26147C30.0709 0.690142 27.2319 -0.0852634 24.3611 0.049329C25.7969 -0.0740493 27.2436 0.0326788 28.6447 0.36535C30.0514 0.702079 31.3899 1.27093 32.6034 2.04775C33.8283 2.81658 34.9083 3.78883 35.7952 4.92116C36.2389 5.4861 36.6345 6.08608 36.978 6.71499C37.3266 7.34246 37.6198 7.99822 37.8544 8.67505C38.3126 10.0331 38.5464 11.4547 38.5469 12.8856L38.5339 17.1181C38.5339 19.9367 38.4857 22.7553 38.4597 25.5739V25.6689H38.3668C36.6642 25.636 34.9615 25.6178 33.2588 25.5739Z" fill="#FF974A"/>
<defs>
<radialGradient id="paint0_radial" cx="0" cy="0" r="1" gradientUnits="userSpaceOnUse" gradientTransform="translate(12.4869 11.7731) scale(16.388 16.1225)">
<stop stop-color="#66730D"/>
<stop offset="0.18" stop-color="#6D7B11"/>
<stop offset="0.45" stop-color="#81911A"/>
<stop offset="0.78" stop-color="#A2B42A"/>
<stop offset="1" stop-color="#BACF36"/>
</radialGradient>
<radialGradient id="paint1_radial" cx="0" cy="0" r="1" gradientUnits="userSpaceOnUse" gradientTransform="translate(32.1205 13.6467) scale(11.0869 19.7422)">
<stop stop-color="#A74303"/>
<stop offset="1" stop-color="#EF7103"/>
</radialGradient>
</defs>
</svg>
